# This file uses centimeters as units for non-parametric coordinates.

mtllib chimney.mtl
g default
v -0.951892 0.035616 2.064282
v 0.951892 0.035616 2.064282
v -0.951892 4.636139 2.064282
v 0.951892 4.636139 2.064282
v -0.951892 4.636139 -2.064282
v 0.951892 4.636139 -2.064282
v -0.951892 0.035616 -2.064282
v 0.951892 0.035616 -2.064282
v 0.951892 6.168705 0.814299
v -0.951892 6.168705 0.814299
v -0.951892 0.035616 0.814299
v 0.951892 0.035616 0.814299
v 0.951892 6.168705 -0.902762
v -0.951892 6.168705 -0.902762
v -0.951892 0.035616 -0.902762
v 0.951892 0.035616 -0.902762
v 0.951892 16.419430 0.814299
v -0.951892 16.419430 0.814299
v 0.951892 16.419430 -0.902762
v -0.951892 16.419430 -0.902762
v 0.786775 16.433643 0.665376
v -0.786775 16.433643 0.665376
v 0.786775 16.433643 -0.753839
v -0.786775 16.433643 -0.753839
v 0.786775 3.610588 0.665376
v -0.786775 3.610588 0.665376
v 0.786775 3.610588 -0.753839
v -0.786775 3.610588 -0.753839
vt 0.375000 0.000000
vt 0.625000 0.000000
vt 0.375000 0.250000
vt 0.625000 0.250000
vt 0.375000 0.500000
vt 0.625000 0.500000
vt 0.375000 0.750000
vt 0.625000 0.750000
vt 0.375000 1.000000
vt 0.625000 1.000000
vt 0.875000 0.000000
vt 0.875000 0.250000
vt 0.125000 0.000000
vt 0.125000 0.250000
vt 0.625000 0.325691
vt 0.700691 0.250000
vt 0.299309 0.250000
vt 0.375000 0.325691
vt 0.299309 0.000000
vt 0.375000 0.924309
vt 0.625000 0.924309
vt 0.700691 0.000000
vt 0.625000 0.429666
vt 0.804666 0.250000
vt 0.195334 0.250000
vt 0.375000 0.429666
vt 0.195334 0.000000
vt 0.375000 0.820334
vt 0.625000 0.820334
vt 0.804666 0.000000
vt 0.375000 0.325691
vt 0.625000 0.325691
vt 0.625000 0.429666
vt 0.375000 0.429666
vt 0.375000 0.325691
vt 0.625000 0.325691
vt 0.625000 0.429666
vt 0.375000 0.429666
vt 0.375000 0.325691
vt 0.625000 0.325691
vt 0.625000 0.429666
vt 0.375000 0.429666
vn 0.000000 0.000000 1.000000
vn 0.000000 0.000000 1.000000
vn 0.000000 0.000000 1.000000
vn 0.000000 0.000000 1.000000
vn 0.000000 0.632045 0.774931
vn 0.000000 0.632045 0.774931
vn 0.000000 0.632045 0.774931
vn 0.000000 0.632045 0.774931
vn 0.000000 0.000000 -1.000000
vn 0.000000 0.000000 -1.000000
vn 0.000000 0.000000 -1.000000
vn 0.000000 0.000000 -1.000000
vn 0.000000 -1.000000 0.000000
vn 0.000000 -1.000000 0.000000
vn 0.000000 -1.000000 0.000000
vn 0.000000 -1.000000 0.000000
vn 1.000000 -0.000000 0.000000
vn 1.000000 -0.000000 0.000000
vn 1.000000 -0.000000 0.000000
vn 1.000000 -0.000000 0.000000
vn -1.000000 0.000000 0.000000
vn -1.000000 -0.000000 0.000000
vn -1.000000 -0.000000 0.000000
vn -1.000000 0.000000 0.000000
vn 0.000000 1.000000 0.000000
vn 0.000000 1.000000 0.000000
vn 0.000000 1.000000 0.000000
vn 0.000000 1.000000 0.000000
vn -1.000000 0.000000 0.000000
vn -1.000000 0.000000 0.000000
vn 0.000000 -1.000000 0.000000
vn 0.000000 -1.000000 0.000000
vn 1.000000 0.000000 0.000000
vn 1.000000 0.000000 0.000000
vn 0.000000 0.604018 -0.796971
vn 0.000000 0.604018 -0.796971
vn 0.000000 0.604018 -0.796971
vn 0.000000 0.604018 -0.796971
vn -1.000000 0.000000 0.000000
vn -1.000000 0.000000 0.000000
vn 0.000000 -1.000000 0.000000
vn 0.000000 -1.000000 0.000000
vn 1.000000 0.000000 0.000000
vn 1.000000 0.000000 0.000000
vn 0.000000 0.000000 1.000000
vn 0.000000 0.000000 1.000000
vn 0.000000 0.000000 1.000000
vn 0.000000 0.000000 1.000000
vn 1.000000 0.000000 0.000000
vn 1.000000 0.000000 0.000000
vn 0.000000 0.000000 -1.000000
vn 0.000000 0.000000 -1.000000
vn 0.000000 0.000000 -1.000000
vn 0.000000 0.000000 -1.000000
vn -1.000000 0.000000 0.000000
vn -1.000000 0.000000 0.000000
vn 0.000000 0.995477 0.095008
vn 0.000000 0.995477 0.095008
vn 0.000000 0.995477 0.095008
vn 0.000000 0.995477 0.095008
vn 0.085761 0.996316 0.000000
vn 0.085761 0.996316 0.000000
vn 0.085761 0.996316 0.000000
vn 0.085761 0.996316 0.000000
vn 0.000000 0.995477 -0.095008
vn 0.000000 0.995477 -0.095008
vn 0.000000 0.995477 -0.095008
vn 0.000000 0.995477 -0.095008
vn -0.085761 0.996316 0.000000
vn -0.085761 0.996316 0.000000
vn -0.085761 0.996316 0.000000
vn -0.085761 0.996316 0.000000
vn 0.000000 0.000000 -1.000000
vn 0.000000 0.000000 -1.000000
vn 0.000000 0.000000 -1.000000
vn 0.000000 0.000000 -1.000000
vn -1.000000 0.000000 0.000000
vn -1.000000 0.000000 0.000000
vn -1.000000 0.000000 0.000000
vn -1.000000 0.000000 0.000000
vn 0.000000 0.000000 1.000000
vn 0.000000 0.000000 1.000000
vn 0.000000 0.000000 1.000000
vn 0.000000 0.000000 1.000000
vn 1.000000 0.000000 0.000000
vn 1.000000 0.000000 0.000000
vn 1.000000 0.000000 0.000000
vn 1.000000 0.000000 0.000000
s off
g pCube1
usemtl initialShadingGroup
f 1/1/1 2/2/2 4/4/3 3/3/4
f 3/3/5 4/4/6 9/15/7 10/18/8
f 5/5/9 6/6/10 8/8/11 7/7/12
s 1
f 11/20/13 12/21/14 2/10/15 1/9/16
s 2
f 2/2/17 12/22/18 9/16/19 4/4/20
s 3
f 11/19/21 1/1/22 3/3/23 10/17/24
s off
f 26/39/25 25/40/26 27/41/27 28/42/28
s 3
f 15/27/29 11/19/21 10/17/24 14/25/30
s 1
f 15/28/31 16/29/32 12/21/14 11/20/13
s 2
f 9/16/19 12/22/18 16/30/33 13/24/34
s off
f 14/26/35 13/23/36 6/6/37 5/5/38
s 3
f 7/13/39 15/27/29 14/25/30 5/14/40
s 1
f 7/7/41 8/8/42 16/29/32 15/28/31
s 2
f 13/24/34 16/30/33 8/11/43 6/12/44
s off
f 10/18/45 9/15/46 17/32/47 18/31/48
s 2
f 9/15/19 13/23/34 19/33/49 17/32/50
s off
f 13/23/51 14/26/52 20/34/53 19/33/54
s 3
f 14/26/30 10/18/24 18/31/55 20/34/56
s off
f 18/31/57 17/32/58 21/36/59 22/35/60
f 17/32/61 19/33/62 23/37/63 21/36/64
f 19/33/65 20/34/66 24/38/67 23/37/68
f 20/34/69 18/31/70 22/35/71 24/38/72
f 22/35/73 21/36/74 25/40/75 26/39/76
f 21/36/77 23/37/78 27/41/79 25/40/80
f 23/37/81 24/38/82 28/42/83 27/41/84
f 24/38/85 22/35/86 26/39/87 28/42/88
